<?xml version="1.0" standalone="no"?>
<!DOCTYPE svg PUBLIC "-//W3C//DTD SVG 20010904//EN"
 "http://www.w3.org/TR/2001/REC-SVG-20010904/DTD/svg10.dtd">
<svg version="1.0" xmlns="http://www.w3.org/2000/svg"
 width="360.000000pt" height="360.000000pt" viewBox="0 0 360.000000 360.000000"
 preserveAspectRatio="xMidYMid meet">
<metadata>
Created by potrace 1.14, written by Peter Selinger 2001-2017
</metadata>
<g transform="translate(0.000000,360.000000) scale(0.100000,-0.100000)"
fill="#000000" stroke="none">
<path d="M2386 3354 c-21 -8 -44 -18 -50 -23 -6 -5 -46 -23 -88 -40 l-76 -32
-39 20 c-107 54 -315 76 -446 47 -241 -54 -424 -201 -478 -383 -11 -38 -14
-41 -39 -36 -33 6 -45 -9 -30 -37 10 -18 8 -20 -25 -20 -45 0 -46 -21 -2 -65
l33 -33 -33 -26 c-41 -33 -44 -66 -7 -66 25 0 25 0 9 -27 -9 -16 -47 -49 -83
-75 -88 -60 -189 -153 -207 -189 -31 -58 -13 -114 55 -172 58 -49 156 -96 257
-122 86 -23 88 -24 85 -52 -7 -71 -68 -168 -176 -281 -58 -61 -106 -117 -106
-124 0 -21 17 -41 28 -34 5 3 12 -7 15 -22 4 -20 16 -32 45 -45 47 -21 52 -21
52 -2 0 8 4 15 10 15 5 0 7 -7 3 -16 -7 -19 21 -44 49 -44 10 0 28 16 40 35
27 41 42 46 28 9 -6 -15 -8 -42 -4 -60 l6 -34 48 43 c60 54 129 88 259 126 56
17 106 33 112 36 28 18 -4 -24 -114 -151 -67 -78 -151 -176 -187 -220 -121
-146 -118 -144 -199 -144 -67 0 -71 -1 -72 -22 0 -25 -71 -134 -85 -132 -5 1
-43 4 -85 8 l-77 7 -147 -233 c-82 -128 -167 -263 -191 -299 -38 -58 -44 -73
-43 -120 0 -30 -3 -77 -6 -105 -5 -39 -3 -53 9 -63 13 -11 20 -11 40 3 14 8
28 25 31 37 6 18 12 20 44 16 20 -3 85 -9 144 -13 88 -6 107 -9 103 -21 -10
-25 5 -62 27 -69 30 -10 70 36 255 291 50 69 173 237 229 313 30 40 56 78 59
86 3 7 -6 26 -19 42 l-24 29 51 77 52 77 44 -45 c44 -45 107 -90 115 -82 3 2
-19 21 -48 42 -29 21 -63 52 -76 69 -23 28 -24 30 -7 43 27 19 13 44 -24 44
-27 0 -30 3 -30 29 0 16 -2 35 -5 43 -3 7 1 22 8 32 13 17 14 17 47 -3 57 -34
138 -120 165 -174 l25 -51 -25 -15 c-32 -20 -32 -69 0 -81 43 -16 50 -35 34
-103 -13 -55 -18 -64 -49 -79 -82 -41 -380 -312 -380 -345 0 -24 28 -63 45
-63 7 0 17 12 22 26 6 19 48 48 183 123 327 183 322 180 346 239 29 72 35 77
76 62 18 -8 86 -16 152 -19 l118 -6 23 -60 c13 -33 33 -93 45 -133 24 -82 102
-240 173 -350 46 -71 47 -72 90 -72 63 0 71 14 37 61 -40 55 -153 431 -175
580 l-7 47 60 27 c74 33 107 65 97 94 -5 16 1 27 23 46 34 28 70 105 78 169
l6 44 -71 42 c-80 47 -176 89 -206 90 -19 0 -20 7 -19 162 0 112 4 163 12 166
28 9 77 49 80 65 2 10 -16 43 -40 75 -24 31 -46 62 -51 69 -5 8 33 33 130 82
76 39 166 89 201 111 59 37 62 42 61 77 -1 39 -3 37 -13 -8 -4 -19 -27 -39
-89 -77 -82 -50 -307 -166 -312 -160 -1 2 -8 14 -15 28 -7 14 -26 41 -41 61
l-29 37 35 6 c19 4 96 32 171 62 87 34 140 51 144 44 8 -14 30 222 30 328 0
81 17 142 40 142 6 0 11 19 11 43 1 23 3 33 6 22 9 -36 23 -41 23 -8 0 17 3
39 7 49 6 16 7 16 13 -2 4 -10 4 -31 -1 -47 -5 -16 -4 -25 2 -22 13 9 10 -16
-6 -45 -19 -33 -19 -172 0 -305 l14 -100 -4 90 c-3 50 -8 133 -12 186 -5 80
-3 100 11 120 10 16 16 44 16 85 0 44 7 77 25 115 42 94 58 173 53 280 -3 87
-7 103 -41 172 -60 120 -146 178 -266 176 -31 0 -74 -7 -95 -15z m173 -10
c160 -47 252 -252 208 -459 -18 -82 -64 -185 -83 -185 -7 0 -16 -11 -20 -24
-3 -13 -14 -26 -25 -29 -14 -4 -19 -14 -19 -41 0 -20 -7 -44 -15 -53 -73 -86
-99 -113 -105 -106 -4 4 -13 35 -19 68 -11 52 -10 64 4 90 l17 30 -5 -30 c-2
-16 -8 -38 -12 -47 -4 -11 -3 -18 4 -18 6 0 14 12 17 28 4 15 16 44 27 65 24
46 18 95 -20 170 -53 105 -216 247 -339 296 l-49 19 91 90 c141 140 223 172
343 136z m-634 -25 c79 -11 188 -41 215 -59 13 -9 13 -12 -3 -21 -9 -5 -50
-36 -90 -68 -52 -41 -94 -65 -152 -85 -135 -48 -283 -130 -420 -236 -43 -33
-81 -57 -84 -55 -2 3 1 11 7 17 7 7 12 31 12 55 0 47 -11 53 -47 28 -20 -14
-22 -13 -28 16 -4 17 -14 33 -23 36 -19 8 -62 -40 -62 -70 l0 -21 -21 20 -20
21 20 54 c29 76 58 120 120 184 88 90 248 165 393 184 91 12 99 12 183 0z
m203 -181 c-222 -239 -352 -339 -538 -419 -97 -41 -101 -42 -118 -25 -9 10
-13 20 -7 22 33 13 39 22 25 38 -16 20 -24 14 85 60 120 50 158 76 365 248 14
12 53 46 88 76 57 49 204 142 225 142 5 0 -51 -64 -125 -142z m-243 -100
c-102 -91 -204 -159 -313 -208 -70 -32 -120 -49 -130 -45 -15 6 -13 10 13 31
72 59 208 145 300 191 177 88 201 94 130 31z m342 -68 c-5 -33 -12 -58 -15
-56 -7 8 8 116 17 116 4 0 3 -27 -2 -60z m59 11 c-8 -12 -46 -21 -46 -11 0 9
18 18 38 19 7 1 11 -3 8 -8z m-113 -61 c8 0 17 -7 21 -15 3 -8 13 -15 22 -15
27 0 91 -58 133 -121 146 -218 100 -561 -92 -693 -79 -54 -128 -68 -242 -69
-158 -1 -305 44 -407 124 -34 28 -42 30 -64 20 -92 -42 -207 25 -189 109 14
62 70 87 121 54 33 -22 37 -15 19 29 -8 20 -15 59 -15 87 0 47 2 51 33 63 42
18 93 62 128 111 16 21 29 36 29 32 0 -12 -42 -96 -51 -102 -5 -3 -9 -10 -9
-16 0 -6 8 -4 18 5 10 10 22 14 25 11 4 -4 13 -1 22 6 9 7 15 8 15 2 0 -6 -18
-25 -40 -42 -41 -32 -100 -109 -100 -130 0 -6 7 -13 15 -16 8 -3 32 -24 54
-45 35 -35 44 -39 91 -39 43 0 56 4 80 28 56 56 44 151 -23 192 -32 20 -28 25
25 35 34 7 36 9 26 30 l-11 24 -50 -19 c-28 -11 -53 -17 -55 -15 -8 8 67 147
86 161 10 8 12 13 5 14 -8 0 -13 15 -13 39 0 33 6 44 33 65 l32 26 7 -23 c10
-36 9 -174 -3 -204 -10 -27 -9 -27 7 -11 13 13 20 41 24 95 4 55 9 72 15 59 8
-18 9 -18 22 0 7 10 13 14 13 9 0 -5 7 0 15 11 10 14 14 15 15 5 0 -11 6 -8
21 7 11 12 24 20 30 17 5 -4 9 6 9 22 0 22 2 25 10 13 20 -30 -14 -143 -58
-192 -8 -10 -11 -18 -5 -18 14 0 37 28 62 75 20 37 21 32 5 -27 -10 -35 24
-18 39 20 30 75 30 137 1 241 l-7 25 46 -27 c25 -15 52 -27 60 -27z m22 30
c-3 -5 -16 -10 -28 -10 -18 0 -19 2 -7 10 20 13 43 13 35 0z m-875 -65 c0 -57
-38 -100 -54 -59 -10 27 -7 48 14 82 26 42 40 33 40 -23z m756 -47 c3 -24 1
-61 -4 -83 -8 -36 -9 -32 -9 35 1 41 -3 86 -7 100 -5 20 -5 22 4 8 5 -9 13
-36 16 -60z m-852 21 c31 -37 33 -49 5 -49 -21 0 -79 50 -79 69 0 23 49 10 74
-20z m176 6 c0 -26 -39 -75 -60 -75 -18 0 -11 53 12 77 28 30 48 29 48 -2z
m-215 -51 c30 -20 29 -48 -1 -52 -25 -4 -84 43 -84 65 0 19 47 12 85 -13z
m1200 -45 c22 -41 11 -36 -14 7 -12 19 -16 32 -11 29 6 -3 17 -19 25 -36z
m-1060 3 c15 -28 14 -42 -3 -42 -15 0 -15 -2 -2 -10 13 -8 13 -12 -3 -27 -15
-16 -19 -16 -27 -3 -8 13 -10 12 -10 -2 0 -24 -25 -23 -51 3 -24 24 -19 63 12
90 24 21 69 16 84 -9z m125 -7 c37 -19 37 -23 4 -35 -37 -14 -91 -3 -97 20 -3
11 -2 21 1 24 11 11 63 6 92 -9z m-260 -44 c0 -24 -36 -51 -67 -51 -31 0 -29
24 3 49 34 27 64 27 64 2z m1236 -27 c8 -20 13 -38 10 -41 -4 -4 -36 61 -36
73 0 15 13 -2 26 -32z m-985 0 c35 -17 34 -38 -2 -42 -26 -3 -89 31 -89 48 0
15 57 12 91 -6z m292 0 c-23 -17 -30 -17 -30 -1 0 6 11 13 24 13 22 2 23 1 6
-12z m-88 -44 c-20 -39 -81 -107 -109 -122 -19 -10 -20 -10 -6 7 8 10 14 20
13 22 -8 10 -2 23 8 18 13 -9 65 41 85 83 9 18 19 31 21 28 2 -2 -3 -18 -12
-36z m-431 24 c21 -8 20 -27 -3 -48 -21 -19 -79 -38 -92 -30 -13 8 20 53 50
69 32 17 26 16 45 9z m145 -31 c11 -38 5 -83 -10 -83 -12 0 -49 60 -49 79 0
13 28 40 42 41 4 0 12 -17 17 -37z m361 -9 c-33 -58 -52 -84 -61 -84 -4 0 -1
12 7 28 7 15 14 32 14 39 0 9 46 51 57 53 2 0 -6 -16 -17 -36z m-432 -15 c14
-28 12 -81 -4 -86 -18 -6 -48 61 -40 91 8 32 26 30 44 -5z m109 25 c-3 -3 -12
-4 -19 -1 -8 3 -5 6 6 6 11 1 17 -2 13 -5z m1073 -24 c-24 -41 -27 -42 -32
-11 -4 27 -2 30 18 29 17 -2 20 -6 14 -18z m-1242 -22 c-3 -7 -51 -28 -109
-48 -57 -20 -114 -42 -126 -49 -39 -20 -26 -7 40 41 47 35 69 45 88 41 14 -2
41 2 60 10 43 19 52 20 47 5z m292 -37 c0 -19 -67 -84 -79 -76 -9 5 -6 11 11
19 12 7 22 19 22 28 -1 11 4 14 14 11 11 -5 13 -3 7 7 -5 9 -4 11 3 6 7 -4 12
-2 12 3 0 6 2 11 5 11 3 0 5 -4 5 -9z m-306 -33 c34 -155 44 -305 30 -412 l-7
-47 -41 7 c-118 20 -252 80 -318 144 -41 39 -48 52 -48 84 0 45 26 92 67 123
59 43 254 129 299 132 6 1 15 -14 18 -31z m1251 -145 c-8 -17 -15 -39 -15 -50
-1 -10 -8 -31 -16 -48 -8 -16 -12 -21 -8 -10 18 59 34 187 30 235 -5 48 -3 45
9 -20 13 -66 13 -79 0 -107z m-1055 113 c0 -2 -8 -10 -17 -17 -16 -13 -17 -12
-4 4 13 16 21 21 21 13z m1167 -133 c-4 -65 -10 -146 -13 -181 -7 -61 -8 -64
-46 -83 -22 -11 -41 -19 -43 -17 -2 2 4 28 12 58 11 36 16 94 16 171 l-1 116
29 17 c16 9 29 21 29 27 0 5 5 9 12 9 8 0 9 -32 5 -117z m-1131 87 c9 0 14
-11 14 -29 0 -16 5 -42 10 -58 9 -25 9 -26 -4 -10 -8 10 -16 14 -17 9 -2 -5
-22 -12 -44 -15 -27 -4 -35 -3 -25 3 8 5 22 10 31 10 19 0 33 50 15 50 -6 0
-6 4 2 9 11 7 11 11 -2 23 -8 9 -12 19 -8 22 4 4 8 2 10 -3 2 -6 10 -11 18
-11z m937 -281 c-10 -17 -24 -36 -32 -42 -8 -7 -2 7 14 31 32 49 45 57 18 11z
m-793 -44 c42 -51 200 -116 318 -131 44 -6 52 -10 52 -28 0 -12 -3 -16 -8 -10
-6 10 -26 12 -127 17 -17 0 -36 -2 -43 -7 -7 -4 -12 -3 -12 2 0 6 -8 8 -19 5
-11 -3 -21 2 -24 10 -4 10 -14 14 -29 10 -14 -3 -18 -1 -12 4 9 6 8 11 -2 21
-12 10 -14 10 -14 -2 0 -10 -7 -12 -22 -8 -13 3 -17 7 -10 10 9 3 7 9 -8 19
-17 12 -24 13 -30 4 -5 -8 -12 -4 -23 13 -14 21 -15 27 -3 39 12 11 3 14 -57
15 -81 2 -106 12 -29 12 28 0 54 5 57 10 9 15 31 12 45 -5z m30 -105 c0 -11
-4 -20 -9 -20 -5 0 -7 9 -4 20 3 11 7 20 9 20 2 0 4 -9 4 -20z m477 -55 c-3
-19 -2 -35 4 -35 5 0 9 6 9 13 0 8 13 13 37 12 34 0 41 -5 75 -54 21 -30 38
-60 38 -66 0 -18 -331 -111 -344 -97 -3 3 -6 27 -6 53 0 26 -5 60 -10 75 -12
31 -4 40 42 50 20 5 28 14 32 40 6 32 9 33 59 37 29 2 56 4 61 5 5 1 6 -14 3
-33z m161 -75 c15 -25 47 -72 73 -105 66 -86 72 -99 51 -118 -9 -9 -29 -20
-43 -25 -25 -10 -27 -8 -49 56 -13 36 -26 60 -28 53 -2 -7 3 -29 12 -49 9 -21
18 -50 19 -67 2 -29 1 -30 -50 -33 l-53 -3 -1 38 c0 21 -4 56 -9 78 -7 30 -8
19 -4 -46 5 -95 3 -99 -56 -99 -56 0 -59 5 -55 88 3 53 2 68 -4 47 -5 -16 -9
-56 -10 -87 l-1 -58 -45 0 -45 0 0 60 c0 33 -4 60 -9 60 -4 0 -6 -22 -3 -49
l4 -50 -43 4 c-39 3 -44 6 -42 27 1 12 -3 6 -10 -14 -12 -44 -17 -46 -53 -15
l-27 23 58 62 58 63 -6 57 c-3 31 -9 68 -13 82 -5 20 -4 23 6 13 7 -7 15 -45
18 -87 4 -63 8 -76 21 -76 35 0 322 81 349 98 10 7 7 19 -13 54 -14 25 -34 53
-45 63 -11 10 -20 23 -20 28 0 18 41 -26 68 -73z m-382 -93 l7 -56 -59 -64
c-33 -35 -113 -122 -179 -193 -184 -199 -295 -325 -295 -336 0 -6 6 -6 14 1
15 13 26 -4 26 -40 0 -16 -6 -20 -27 -17 -18 2 -27 8 -25 17 2 11 0 12 -11 2
-8 -6 -37 -11 -65 -10 l-51 2 84 91 c46 50 107 121 137 157 29 37 96 116 148
176 52 61 118 149 145 197 63 109 82 136 109 146 27 10 34 -2 42 -73z m-93
-209 c2 -7 0 -26 -5 -43 -4 -16 -8 -50 -8 -75 l0 -45 15 30 c17 34 63 90 69
84 2 -2 7 -24 11 -49 6 -44 5 -48 -39 -96 -45 -50 -46 -51 -118 -57 -40 -4
-104 -15 -143 -26 -38 -11 -71 -19 -72 -18 -1 1 59 67 132 147 74 80 134 148
135 153 0 12 18 8 23 -5z m519 -68 c4 -36 5 -104 1 -151 l-5 -86 37 -6 c45 -7
211 -87 242 -116 20 -19 21 -23 8 -77 -13 -55 -58 -134 -82 -141 -7 -3 -24 20
-38 49 -35 69 -147 249 -152 244 -5 -5 20 -52 92 -170 62 -101 90 -168 82
-191 -13 -32 -129 -85 -224 -103 l-50 -9 -28 96 c-19 62 -29 117 -28 156 0 33
-1 48 -4 33 -7 -43 -18 -34 -43 32 -12 33 -27 63 -31 66 -14 8 -12 1 30 -103
37 -96 73 -206 86 -270 6 -30 4 -32 -32 -42 -80 -22 -248 -7 -300 27 -9 5 -7
25 8 76 10 38 17 71 15 74 -6 5 -46 -129 -46 -152 0 -34 -75 3 -162 80 -67 60
-82 80 -52 70 14 -4 25 3 41 27 26 38 63 131 62 155 0 19 -3 15 -39 -80 -21
-54 -40 -75 -40 -44 0 51 -129 211 -191 236 -35 15 -36 20 -6 47 32 30 137 63
241 75 89 11 92 12 139 57 l49 46 -5 73 -5 72 33 0 c18 0 35 -6 37 -12 5 -13
42 -14 176 -3 39 4 72 10 72 15 0 10 42 18 80 16 23 -1 26 -6 32 -66z m-1094
-461 c-5 -3 5 -9 22 -13 44 -8 62 -8 56 2 -5 8 105 4 113 -4 3 -3 -51 -89 -92
-148 -5 -7 -14 -3 -26 12 -17 20 -34 24 -133 33 -62 5 -116 11 -120 12 -4 1 9
28 28 60 l36 57 63 -2 c35 -2 59 -6 53 -9z m-241 -123 c3 -2 -4 -18 -16 -34
-24 -35 -27 -52 -7 -52 8 0 27 20 43 45 23 38 32 45 53 41 14 -3 66 -8 115
-11 71 -5 95 -11 112 -27 17 -16 20 -25 12 -40 -5 -10 -7 -23 -4 -28 8 -13
-69 -12 -239 0 -86 6 -133 14 -138 22 -4 7 -19 33 -34 57 l-27 44 62 -6 c35
-3 65 -8 68 -11z m673 -1 c0 -9 -9 -15 -22 -15 -21 0 -21 0 -2 15 24 18 24 18
24 0z m-788 -50 c5 -11 -2 -6 -16 10 -14 17 -25 24 -26 18 0 -7 -5 -13 -10
-13 -6 0 -5 8 2 20 12 19 14 19 26 3 8 -10 18 -27 24 -38z m-84 -34 c-12 -22
-24 -38 -26 -36 -5 4 37 75 44 75 3 0 -6 -18 -18 -39z m557 -39 c-34 -4 -42 3
-25 23 12 14 15 14 33 -2 19 -18 19 -18 -8 -21z m-175 -3 c107 -7 196 -13 198
-14 2 -2 -59 -88 -135 -191 -76 -103 -174 -237 -219 -298 -54 -75 -87 -111
-100 -111 -36 0 -404 28 -404 31 0 1 35 52 78 112 42 60 136 193 207 295 109
156 134 186 155 187 14 0 113 -5 220 -11z m644 -68 c29 -12 29 -18 1 -86 -13
-32 -143 -116 -350 -225 -55 -30 -113 -62 -129 -73 -28 -20 -29 -20 -43 -2 -7
11 -12 22 -11 26 5 13 211 200 264 241 30 22 69 48 87 57 27 14 34 25 47 77
l14 61 46 -33 c25 -18 58 -38 74 -43z m-934 45 c0 -2 -8 -10 -17 -17 -16 -13
-17 -12 -4 4 13 16 21 21 21 13z m-149 -30 c-7 -8 -10 -19 -7 -24 3 -5 -1 -9
-9 -9 -12 0 -11 5 1 30 9 16 18 26 21 23 3 -3 0 -12 -6 -20z m1632 -39 c3 -29
12 -75 20 -102 9 -28 34 -117 57 -199 23 -82 52 -177 66 -209 13 -33 24 -64
24 -69 0 -16 -67 -8 -82 10 -22 26 -115 193 -143 257 -14 31 -36 94 -49 139
-14 44 -33 102 -45 129 -11 26 -16 47 -11 47 5 0 15 6 22 13 12 12 81 33 119
36 12 1 17 -11 22 -52z m-1525 13 c-7 -10 -14 -17 -17 -15 -4 4 18 35 25 35 2
0 -1 -9 -8 -20z m-157 -53 c-10 -9 -11 -8 -5 6 3 10 9 15 12 12 3 -3 0 -11 -7
-18z m119 -1 c0 -2 -8 -10 -17 -17 -16 -13 -17 -12 -4 4 13 16 21 21 21 13z
m-150 -43 c0 -5 -10 -19 -21 -33 l-21 -25 18 33 c18 32 24 38 24 25z m110 -13
c-6 -11 -13 -20 -16 -20 -2 0 0 9 6 20 6 11 13 20 16 20 2 0 0 -9 -6 -20z
m-50 -69 c-5 -11 -15 -23 -21 -27 -6 -3 -3 5 6 20 20 30 30 35 15 7z m-136
-36 c-9 -14 -18 -25 -21 -25 -5 0 5 18 20 38 17 22 18 13 1 -13z m-92 -162
c-3 -16 -7 -22 -10 -15 -4 13 4 42 11 42 2 0 2 -12 -1 -27z m802 -7 c19 -30
12 -63 -10 -45 -12 10 -21 69 -10 69 2 0 11 -11 20 -24z m-734 -25 c-5 -11
-15 -23 -21 -27 -6 -3 -3 5 6 20 20 30 30 35 15 7z m-39 -46 c6 4 5 -2 -3 -14
l-13 -21 -7 22 c-9 35 -8 56 3 30 5 -13 14 -20 20 -17z m2042 -160 c1 -6 -17
-11 -40 -13 -50 -4 -59 15 -10 21 41 5 48 4 50 -8z"/>
<path d="M2210 2799 c66 -11 99 -11 80 1 -8 5 -40 9 -70 9 l-55 -2 45 -8z"/>
<path d="M2155 2660 c-3 -5 -2 -10 4 -10 5 0 13 5 16 10 3 6 2 10 -4 10 -5 0
-13 -4 -16 -10z"/>
<path d="M2188 2643 c-35 -14 -51 -33 -29 -33 5 0 7 -18 4 -39 -11 -83 29
-141 98 -141 72 0 105 67 70 145 -21 49 -19 52 19 30 32 -18 50 -19 50 -2 0 7
-17 23 -39 35 -46 26 -118 28 -173 5z"/>
<path d="M1750 2590 c-12 -8 -12 -10 5 -9 11 0 29 4 40 9 18 8 18 9 -5 9 -14
0 -32 -4 -40 -9z"/>
<path d="M2103 2424 c20 -6 23 -30 5 -37 -7 -2 -9 -8 -5 -13 10 -10 39 25 34
41 -2 5 -14 11 -28 12 -14 1 -17 0 -6 -3z"/>
<path d="M1405 2237 c13 -7 20 -20 18 -32 -4 -19 -3 -19 11 -2 12 15 18 16 35
7 15 -7 21 -8 21 0 0 13 -61 40 -87 40 -16 -1 -16 -2 2 -13z"/>
<path d="M2095 2243 c-59 -8 -140 -35 -152 -50 -28 -36 35 -83 110 -83 52 0
102 30 130 78 33 57 14 69 -88 55z m89 -11 c9 -14 -32 -71 -66 -92 -43 -26
-102 -26 -139 1 -51 36 -33 55 71 78 90 20 127 24 134 13z"/>
<path d="M1250 2770 c0 -5 7 -10 16 -10 8 0 12 5 9 10 -3 6 -10 10 -16 10 -5
0 -9 -4 -9 -10z"/>
<path d="M1290 2770 c0 -6 6 -10 13 -10 8 0 7 -4 -3 -10 -13 -8 -12 -10 3 -10
21 0 23 26 2 34 -8 3 -15 1 -15 -4z"/>
<path d="M1238 2743 c6 -2 12 -11 12 -19 0 -8 9 -14 21 -14 11 0 17 5 14 10
-4 6 -11 8 -16 5 -5 -4 -9 -2 -9 4 0 5 6 12 13 14 6 3 -1 5 -18 5 -16 0 -24
-2 -17 -5z"/>
<path d="M1225 2720 c3 -5 8 -10 11 -10 2 0 4 5 4 10 0 6 -5 10 -11 10 -5 0
-7 -4 -4 -10z"/>
</g>
</svg>
